<svg width="257" height="256" viewBox="0 0 257 256" fill="none" xmlns="http://www.w3.org/2000/svg">
<g clip-path="url(#clip0_1_55)">
<path d="M120.126 0.199976C119.576 0.249971 117.826 0.424954 116.251 0.549942C79.9299 3.82462 45.9083 23.4227 24.3604 53.5448C12.3616 70.2931 4.6873 89.2913 1.78758 109.414C0.762683 116.439 0.637695 118.513 0.637695 128.037C0.637695 137.562 0.762683 139.636 1.78758 146.661C8.7369 194.681 42.9086 235.027 89.254 249.976C97.5532 252.65 106.302 254.475 116.251 255.575C120.126 256 136.874 256 140.749 255.575C157.922 253.675 172.471 249.426 186.82 242.101C189.019 240.976 189.444 240.676 189.144 240.427C188.944 240.277 179.57 227.703 168.321 212.504L147.873 184.882L122.251 146.961C108.152 126.113 96.5533 109.064 96.4533 109.064C96.3533 109.039 96.2533 125.888 96.2034 146.461C96.1284 182.482 96.1034 183.932 95.6534 184.782C95.0035 186.007 94.5035 186.507 93.4536 187.057C92.6537 187.457 91.9538 187.532 88.1791 187.532H83.8546L82.7047 186.807C81.9548 186.332 81.4048 185.707 81.0298 184.982L80.5049 183.857L80.5549 133.737L80.6299 83.5918L81.4048 82.6169C81.8048 82.092 82.6547 81.417 83.2546 81.0921C84.2795 80.5921 84.6795 80.5421 89.0041 80.5421C94.1036 80.5421 94.9535 80.7421 96.2784 82.192C96.6533 82.5919 110.527 103.49 127.125 128.662C143.724 153.835 166.421 188.207 177.57 205.08L197.818 235.752L198.843 235.077C207.917 229.178 217.517 220.778 225.116 212.029C241.289 193.456 251.713 170.808 255.213 146.661C256.238 139.636 256.363 137.562 256.363 128.037C256.363 118.513 256.238 116.439 255.213 109.414C248.264 61.394 214.092 21.0479 167.746 6.0994C159.572 3.44966 150.873 1.62484 141.124 0.524944C138.724 0.274969 122.201 -4.54485e-06 120.126 0.199976ZM172.471 77.5424C173.671 78.1424 174.646 79.2922 174.996 80.4921C175.196 81.1421 175.246 95.0407 175.196 126.363L175.121 171.308L167.196 159.159L159.247 147.011V114.339C159.247 93.2159 159.347 81.342 159.497 80.7671C159.897 79.3672 160.772 78.2673 161.972 77.6174C162.997 77.0925 163.372 77.0425 167.296 77.0425C170.996 77.0425 171.646 77.0925 172.471 77.5424Z" fill="white"/>
<path d="M196.568 236.302C195.693 236.852 195.418 237.227 196.193 236.802C196.743 236.477 197.643 235.802 197.493 235.777C197.418 235.777 196.993 236.027 196.568 236.302ZM194.843 237.427C194.393 237.777 194.393 237.802 194.943 237.527C195.243 237.377 195.493 237.202 195.493 237.152C195.493 236.952 195.368 237.002 194.843 237.427ZM193.593 238.177C193.144 238.527 193.144 238.552 193.693 238.277C193.993 238.127 194.243 237.952 194.243 237.902C194.243 237.702 194.118 237.752 193.593 238.177ZM192.344 238.927C191.894 239.277 191.894 239.302 192.444 239.027C192.744 238.877 192.994 238.702 192.994 238.652C192.994 238.452 192.869 238.502 192.344 238.927ZM190.444 239.927C189.494 240.427 189.544 240.626 190.494 240.152C190.919 239.927 191.244 239.702 191.244 239.652C191.244 239.477 191.219 239.502 190.444 239.927Z" fill="black"/>
</g>
<defs>
<clipPath id="clip0_1_55">
<rect width="256" height="256" fill="white" transform="translate(0.5)"/>
</clipPath>
</defs>
</svg>
